<svg xmlns="http://www.w3.org/2000/svg" viewBox="320 290 400 590">
<g transform="translate(0,1080) scale(0.1,-0.1)" fill="#000000" stroke="none">
<path d="M5200 7634 c0 -8 13 -32 29 -52 35 -44 81 -151 81 -187 0 -14 11 -48 25 -75 27 -53 65 -80 114 -80 28 0 30 -3 45 -67 33 -150 39 -206 33 -362 -5 -143 -9 -171 -52 -341 -25 -102 -68 -252 -95 -335 -50 -155 -68 -235 -53 -235 5 0 46 51 93 113 205 272 339 418 475 512 88 61 181 115 199 115 5 0 26 -16 47 -35 31 -27 48 -35 78 -35 51 0 105 20 169 64 67 45 119 60 205 59 37 0 67 3 67 7 0 10 -102 54 -169 74 -122 36 -294 10 -366 -54 -11 -10 -56 -37 -101 -59 -44 -22 -86 -47 -94 -55 -7 -9 -19 -16 -27 -16 -43 0 -209 -144 -308 -267 -27 -34 -51 -61 -52 -59 -2 2 10 37 26 78 17 41 42 116 57 167 25 89 26 101 21 260 -4 144 -9 182 -37 286 -19 74 -43 138 -61 167 -25 39 -29 53 -23 83 9 47 -38 143 -98 202 -39 39 -200 143 -220 143 -4 0 -8 -7 -8 -16z m265 -239 c30 -50 30 -82 0 -77 -10 2 -25 -4 -33 -15 -13 -17 -15 -16 -37 11 -33 41 -39 73 -20 102 26 39 60 32 90 -21z m132 -617 c-2 -13 -4 -3 -4 22 0 25 2 35 4 23 2 -13 2 -33 0 -45z m697 -64 c10 -4 16 -18 16 -35 0 -39 -35 -61 -92 -57 -43 3 -43 3 -40 38 1 19 4 41 7 48 5 13 80 17 109 6z m-733 -157 c-13 -13 -15 14 -3 64 l7 34 3 -44 c2 -24 -2 -49 -7 -54z"/>
<path d="M4888 7346 c-95 -73 -134 -122 -171 -216 -22 -58 -26 -85 -32 -250 -4 -102 -6 -205 -6 -230 3 -67 37 -202 77 -303 20 -49 34 -91 31 -93 -3 -3 -39 38 -81 90 -43 52 -97 113 -121 134 -48 43 -176 123 -270 170 -95 47 -282 102 -349 102 -47 0 -64 5 -88 25 -26 22 -38 25 -111 25 -58 0 -101 -7 -147 -23 -79 -27 -202 -95 -198 -109 2 -6 52 -11 118 -13 81 -2 127 -7 155 -19 45 -19 126 -23 168 -7 15 6 32 22 39 36 13 30 28 29 138 -10 104 -37 155 -61 259 -125 144 -89 287 -221 574 -533 54 -59 105 -107 113 -107 18 0 18 3 -5 53 -188 412 -240 580 -248 797 -6 162 1 190 50 190 40 0 69 19 97 65 19 30 22 52 23 143 2 97 5 112 32 165 16 33 36 64 45 70 28 20 33 37 12 37 -11 0 -57 -29 -104 -64z m-57 -226 c24 -13 25 -59 3 -106 -19 -40 -22 -41 -69 -13 -23 14 -34 27 -31 36 3 8 6 18 6 23 0 13 50 70 62 70 5 0 18 -5 29 -10z m-1012 -361 c32 -11 39 -23 21 -34 -6 -4 -8 -16 -4 -27 8 -25 -10 -38 -54 -38 -40 0 -85 39 -76 67 15 41 54 53 113 32z m557 -195 c40 -24 57 -44 36 -44 -11 0 -92 58 -92 65 0 9 11 5 56 -21z m325 -241 c13 -16 12 -17 -3 -4 -10 7 -18 15 -18 17 0 8 8 3 21 -13z"/>
<path d="M6902 6563 c-45 -93 -70 -127 -115 -156 -29 -19 -77 -106 -77 -140 0 -10 7 -32 16 -48 l15 -30 -68 -67 c-78 -76 -197 -163 -309 -227 -110 -63 -401 -154 -634 -200 -165 -32 -230 -52 -230 -71 0 -8 6 -14 13 -14 34 0 342 -32 437 -45 205 -28 384 -86 509 -165 54 -35 62 -44 57 -63 -4 -12 -10 -39 -13 -59 -10 -68 67 -163 150 -184 43 -10 123 -89 153 -149 25 -52 44 -71 44 -42 0 6 -9 59 -19 117 -30 172 -101 285 -214 339 -34 17 -86 48 -116 70 -29 22 -66 43 -83 46 -16 4 -32 13 -35 20 -12 34 -171 83 -371 115 -41 7 -70 15 -65 19 4 4 51 15 103 24 100 17 244 61 270 81 8 7 35 23 60 35 125 63 364 283 395 363 14 37 23 48 46 53 44 10 106 87 129 163 24 77 30 302 7 302 -6 0 -31 -39 -55 -87z m-21 -204 c14 -14 18 -27 13 -42 -18 -57 -69 -94 -86 -63 -5 9 -18 16 -28 16 -31 0 -21 40 23 88 25 27 51 28 78 1z m-439 -491 c-15 -18 -72 -51 -72 -41 0 9 60 51 74 52 5 1 4 -5 -2 -11z m-163 -72 c-2 -2 -15 -9 -29 -15 -24 -11 -24 -11 -6 3 16 13 49 24 35 12z m376 -517 c31 -38 33 -101 2 -107 -35 -7 -68 9 -87 41 -25 41 -26 67 -1 67 10 0 24 7 31 15 18 21 25 19 55 -16z"/>
<path d="M3514 6355 c-11 -28 34 -235 63 -293 37 -73 118 -155 168 -170 22 -6 64 -31 93 -56 28 -24 69 -50 89 -57 21 -6 48 -21 59 -33 34 -33 150 -73 298 -103 75 -15 136 -30 136 -33 0 -4 -34 -12 -75 -19 -105 -17 -273 -74 -326 -109 -24 -16 -70 -46 -102 -66 -95 -61 -270 -237 -309 -311 -25 -49 -41 -68 -68 -80 -43 -19 -72 -61 -101 -140 -17 -49 -21 -83 -22 -188 0 -144 12 -178 38 -111 32 81 72 147 128 212 75 88 92 144 61 204 l-16 30 90 88 c88 85 234 191 337 242 100 51 350 129 580 183 271 64 266 71 -75 110 -316 37 -489 89 -660 199 -68 44 -71 48 -64 74 29 94 -7 161 -116 218 -77 40 -145 110 -161 165 -15 49 -36 69 -45 44z m260 -306 c35 -41 33 -65 -5 -85 -26 -13 -36 -14 -54 -4 -42 23 -59 91 -27 109 31 18 60 12 86 -20z m346 -609 c-8 -5 -19 -10 -25 -10 -5 0 -3 5 5 10 8 5 20 10 25 10 6 0 3 -5 -5 -10z m-135 -56 c-11 -9 -33 -22 -50 -30 l-30 -15 33 30 c18 17 40 31 50 31 15 -1 15 -2 -3 -16z m-421 -419 c3 -8 15 -15 26 -15 26 0 26 -25 0 -68 -23 -38 -40 -47 -74 -38 -32 8 -39 30 -21 73 26 61 56 82 69 48z"/>
<path d="M4924 5215 c-178 -264 -346 -460 -460 -536 -98 -65 -139 -89 -168 -99 -30 -10 -36 -8 -69 23 -19 19 -48 37 -64 40 -53 11 -125 -14 -174 -59 -44 -41 -134 -67 -206 -59 -52 5 -63 4 -63 -8 0 -27 213 -97 294 -97 86 0 208 42 236 81 3 4 39 23 80 41 41 19 81 42 89 51 7 10 20 17 29 17 46 0 200 140 305 278 27 35 50 62 53 59 2 -2 -9 -42 -26 -87 -69 -187 -87 -356 -59 -540 18 -120 80 -310 115 -356 27 -35 32 -49 27 -77 -8 -49 45 -145 111 -203 45 -39 199 -124 226 -124 18 0 10 21 -25 64 -34 41 -76 126 -109 217 -21 59 -74 110 -122 118 -33 5 -38 11 -56 56 -41 103 -53 191 -53 385 0 179 1 190 37 340 20 85 40 171 44 190 3 19 24 89 45 155 43 135 61 226 49 238 -4 5 -43 -44 -86 -108z m-133 -638 c-13 -13 -14 5 -3 43 l7 25 3 -29 c2 -16 -1 -33 -7 -39z m-620 13 c16 -9 17 -15 9 -31 -6 -11 -8 -24 -5 -30 4 -5 1 -16 -5 -24 -15 -18 -101 -20 -118 -3 -45 45 57 121 119 88z m839 -730 c25 -49 25 -55 0 -80 -29 -29 -55 -25 -78 13 -27 44 -38 91 -20 84 8 -2 22 1 33 9 30 22 43 17 65 -26z"/>
<path d="M5340 5318 c0 -6 32 -81 71 -166 166 -364 207 -494 216 -688 7 -141 1 -174 -28 -174 -44 0 -88 -28 -111 -72 -20 -37 -23 -56 -21 -133 3 -110 -14 -175 -62 -238 -20 -26 -31 -48 -25 -52 10 -6 91 48 154 102 52 47 102 121 121 183 15 46 29 232 25 335 0 11 0 53 0 93 0 95 -28 210 -85 351 -25 63 -44 116 -42 118 2 2 23 -21 47 -52 82 -106 203 -210 313 -269 170 -90 421 -169 510 -159 41 5 52 2 73 -18 24 -22 34 -24 122 -23 109 0 160 18 280 97 75 49 82 73 20 61 -64 -12 -213 -5 -253 12 -41 17 -117 18 -148 3 -12 -6 -34 -25 -48 -41 l-25 -30 -82 22 c-96 26 -336 141 -407 195 -120 91 -323 276 -452 410 -129 135 -163 163 -163 133z m314 -414 c5 -14 4 -15 -9 -4 -17 14 -19 20 -6 20 5 0 12 -7 15 -16z m231 -138 c17 -14 26 -25 20 -25 -5 -1 -28 15 -50 35 -44 39 -18 30 30 -10z m111 -87 c19 -22 19 -22 -3 -10 -24 12 -39 31 -25 31 5 0 17 -10 28 -21z m657 -110 c37 -45 15 -79 -51 -79 -56 0 -88 16 -72 35 6 8 9 23 5 34 -14 44 83 53 118 10z m-1040 -359 c36 0 9 -97 -32 -120 -25 -13 -27 -13 -45 6 -22 22 -20 70 5 111 20 31 23 33 38 19 10 -9 25 -16 34 -16z"/>
<path d="M5830 2973 c-32 -4 -39 -10 -68 -62 -17 -32 -61 -121 -96 -197 -35 -77 -100 -217 -145 -312 -44 -95 -81 -179 -81 -186 0 -9 15 -13 47 -12 l46 1 39 85 c22 46 41 87 44 89 2 2 91 6 198 8 l194 4 29 -73 c37 -97 55 -123 76 -115 13 5 16 14 11 34 l-6 28 29 -33 c27 -31 56 -41 67 -24 3 5 -24 68 -60 141 -35 73 -98 210 -138 305 -90 208 -145 327 -148 324 -2 -1 -19 -3 -38 -5z m55 -303 c31 -74 59 -141 62 -147 4 -10 -25 -13 -126 -13 -94 0 -131 3 -131 12 0 11 47 128 100 252 12 30 24 46 30 40 5 -5 34 -70 65 -144z m95 -230 c0 -6 -24 -10 -52 -9 -42 1 -48 3 -28 9 36 12 80 12 80 0z m-151 -4 c-11 -9 -179 -15 -179 -6 0 6 37 10 92 10 50 0 89 -2 87 -4z"/>
<path d="M3890 2956 c-9 -12 -43 -85 -167 -361 -126 -280 -163 -367 -163 -383 0 -35 30 15 79 131 85 201 96 196 16 -8 -32 -80 -41 -113 -33 -122 6 -7 15 -13 20 -13 12 0 62 109 178 388 51 122 95 222 99 222 3 0 64 -138 136 -305 71 -168 135 -305 141 -305 22 0 25 19 9 51 -25 47 -12 45 29 -6 37 -44 76 -60 76 -30 0 8 -63 151 -139 317 -76 167 -152 333 -169 370 -29 64 -31 66 -66 65 -20 -1 -41 -6 -46 -11z"/>
<path d="M4544 2955 c-4 -10 -10 -12 -18 -6 -11 9 -72 8 -82 -2 -3 -3 -1 -101 5 -219 6 -133 7 -269 1 -363 -8 -152 -3 -187 23 -151 12 17 14 17 20 2 13 -32 35 -17 44 32 10 46 10 46 17 17 13 -52 16 -56 27 -49 9 5 10 74 6 268 -4 144 -7 312 -7 374 0 94 -2 112 -15 112 -9 0 -18 -7 -21 -15z m16 -525 c0 -67 -4 -110 -10 -110 -6 0 -10 43 -10 110 0 67 4 110 10 110 6 0 10 -43 10 -110z"/>
<path d="M4917 2963 c-4 -3 -7 -15 -7 -26 0 -19 -1 -19 -19 -3 -11 10 -30 16 -43 14 -19 -2 -24 -10 -28 -48 -10 -87 4 -664 17 -685 12 -21 18 -21 496 -16 44 1 48 3 45 23 -2 15 -13 25 -38 31 l-35 10 33 10 c17 5 32 16 32 24 0 13 -31 15 -207 12 l-208 -4 -2 160 c-4 264 -15 505 -22 505 -4 0 -11 -3 -14 -7z m13 -530 c0 -67 -4 -124 -9 -127 -15 -10 -17 14 -13 148 5 163 22 147 22 -21z m33 -200 c-7 -2 -21 -2 -30 0 -10 3 -4 5 12 5 17 0 24 -2 18 -5z"/>
<path d="M6874 2962 c-22 -14 -141 -265 -229 -482 -24 -57 -47 -106 -52 -107 -5 -2 -24 34 -42 79 -56 137 -213 482 -227 497 -9 10 -19 11 -42 3 -21 -7 -33 -7 -40 0 -6 6 -18 8 -26 5 -19 -8 -23 3 88 -250 98 -222 232 -504 243 -510 4 -2 30 -2 56 1 42 4 49 8 61 36 7 17 27 60 44 96 150 317 282 606 282 617 0 32 -24 3 -65 -82 -45 -91 -52 -83 -9 10 19 43 21 53 10 70 -15 22 -35 29 -52 17z m-100 -299 c-38 -94 -132 -293 -139 -293 -3 0 2 17 11 38 9 20 33 78 54 127 50 123 91 207 97 202 2 -3 -8 -36 -23 -74z m-369 -70 c105 -213 144 -305 120 -281 -6 6 -185 388 -185 394 0 15 15 -11 65 -113z"/>
</g>
</svg>
